<svg
   xmlns:dc="http://purl.org/dc/elements/1.1/"
   xmlns:cc="http://creativecommons.org/ns#"
   xmlns:rdf="http://www.w3.org/1999/02/22-rdf-syntax-ns#"
   xmlns:svg="http://www.w3.org/2000/svg"
   xmlns="http://www.w3.org/2000/svg"
   viewBox="0 0 5333.3335 5333.3335"
   height="5333.3335"
   width="5333.3335"
   xml:space="preserve"
   id="svg2"
   version="1.1"><metadata
     id="metadata8"><rdf:RDF><cc:Work
         rdf:about=""><dc:format>image/svg+xml</dc:format><dc:type
           rdf:resource="http://purl.org/dc/dcmitype/StillImage" /></cc:Work></rdf:RDF></metadata><defs
     id="defs6"><clipPath
       id="clipPath24"
       clipPathUnits="userSpaceOnUse"><path
         id="path22"
         d="m 32462.9,18550.3 c -384.4,-918 -1550.6,-1407.6 -3135.3,-1460.6 C 27732.8,12725 23583.3,9613.6 18715,9613.6 c -221.2,0 -440.5,6 -658.7,20 -3474.8,201.2 -6530.1,1990.2 -8467.19,4662.1 -1374.49,1895 -2186.35,4233.6 -2186.35,6763.3 0,831.2 14.53,2330.7 741.88,4085.1 719.57,1735.5 1790.21,2885 2495.26,3523.5 -5.8,422.8 21.4,978.3 153.5,1611.4 787.6,3773.5 4616.8,7032.5 6465.1,6294.9 1101.1,-439.5 1612.7,-2001.2 1510.6,-4069.5 5532,-25 10126,-4069.4 11077,-9396.2 2055.3,-1545.7 3145.4,-3295.6 2616.8,-4557.9 z" /></clipPath><clipPath
       id="clipPath164"
       clipPathUnits="userSpaceOnUse"><path
         id="path162"
         d="m 20208.7,25244.5 c -533.6,-691.7 -1111.3,-1055.1 -1513.7,-880.9 -443.5,192.2 -553.6,986.1 -340.4,1976.1 36.1,-142.1 180.2,-596.6 644.7,-891.9 537.6,-343.4 1092.2,-208.3 1184.3,-184.2 z" /></clipPath><clipPath
       id="clipPath420"
       clipPathUnits="userSpaceOnUse"><path
         id="path418"
         d="m 24991.8,23268.4 c -443.4,-775.8 -976,-1227.3 -1404.5,-1106.2 -463.5,132.1 -678.7,901 -597.6,1905.1 70,-149.2 284.3,-539.6 753.8,-760.9 558.6,-264.2 1083.2,-101.1 1248.3,-38 z" /></clipPath><clipPath
       id="clipPath676"
       clipPathUnits="userSpaceOnUse"><path
         id="path674"
         d="m 31533.1,16330.8 c 1475.7,-2556 -45.1,-6196.7 -3396.7,-8131.8 -3351.7,-1935.1 -7265.1,-1431.8 -8740.8,1124.2 -1475.7,2556 45.1,6196.8 3396.8,8131.9 3351.7,1935.1 7265,1431.7 8740.7,-1124.3 z" /></clipPath><clipPath
       id="clipPath768"
       clipPathUnits="userSpaceOnUse"><path
         id="path766"
         d="M 15775.8,3427.9 C 13603.5,2768.2 10930.6,5235.8 9806.37,8938.8 9208.71,10907 9168.66,12829.1 9589.11,14295.7 11526.2,11623.8 14581.5,9834.8 18056.3,9633.6 18504.8,6600.3 17613.8,3985.5 15775.8,3427.9 Z" /></clipPath></defs><g
     transform="matrix(1.3333333,0,0,-1.3333333,0,5333.3333)"
     id="g10"><g
       transform="scale(0.1)"
       id="g12"><g
         transform="scale(2.45399)"
         id="g14"><path
           id="path16"
           style="fill:#ececea;fill-opacity:1;fill-rule:nonzero;stroke:none"
           d="M 16300,0 H 0 V 16300 H 16300 V 0" /></g><g
         id="g18"><g
           clip-path="url(#clipPath24)"
           id="g20"><g
             transform="scale(2.25025)"
             id="g26"><path
               id="path28"
               style="fill:#f35f8f;fill-opacity:1;fill-rule:nonzero;stroke:none"
               d="M 3289.76,16581.1 H 14661.3 V 4272.25 H 3289.76 V 16581.1" /></g><g
             transform="scale(2.25025)"
             id="g30"><path
               id="path32"
               style="fill:#f35f8f;fill-opacity:1;fill-rule:nonzero;stroke:none"
               d="M 14705.8,10311 V 4227.76 H 3245.27 V 16625.6 H 14705.8 V 10311" /></g><g
             transform="scale(2.25025)"
             id="g34"><path
               id="path36"
               style="fill:#f36090;fill-opacity:1;fill-rule:nonzero;stroke:none"
               d="M 14705.8,10310.2 V 4227.76 H 3245.27 V 16625.6 H 14705.8 v -6315.4" /></g><g
             transform="scale(2.25025)"
             id="g38"><path
               id="path40"
               style="fill:#f36090;fill-opacity:1;fill-rule:nonzero;stroke:none"
               d="M 14705.8,10309.4 V 4227.76 H 3245.27 V 16625.6 H 14705.8 v -6316.2" /></g><g
             transform="scale(2.25025)"
             id="g42"><path
               id="path44"
               style="fill:#f36191;fill-opacity:1;fill-rule:nonzero;stroke:none"
               d="M 14705.8,10308.6 V 4227.76 H 3245.27 V 16625.6 H 14705.8 v -6317" /></g><g
             transform="scale(2.25025)"
             id="g46"><path
               id="path48"
               style="fill:#f36392;fill-opacity:1;fill-rule:nonzero;stroke:none"
               d="M 14705.8,10307.8 V 4227.76 H 3245.27 V 16625.6 H 14705.8 v -6317.8" /></g><g
             transform="scale(2.25025)"
             id="g50"><path
               id="path52"
               style="fill:#f36393;fill-opacity:1;fill-rule:nonzero;stroke:none"
               d="M 14705.8,10307 V 4385.03 h 112.3 c -94.4,-94.83 -191,-187.44 -289.8,-277.74 v 120.47 H 3277.71 v -148.6 c -99.27,89.81 -196.39,181.93 -291.25,276.32 h 258.81 V 16187.1 h -288.39 c 188.78,189.8 386.6,370.5 592.77,541.5 v -103 H 14193.1 v 129.6 c 207,-170 405.8,-349.7 595.5,-538.5 h -82.8 V 10307" /></g><g
             transform="scale(2.25025)"
             id="g54"><path
               id="path56"
               style="fill:#f36494;fill-opacity:1;fill-rule:nonzero;stroke:none"
               d="M 14705.8,10306.2 V 7173.35 4892.04 h 149.9 c -86.3,-95.45 -174.9,-188.82 -265.6,-280.05 -181.6,-182.43 -371.8,-356.19 -570,-520.61 v 136.38 H 3785.99 v -161.98 c -199.06,163.45 -390.14,336.27 -572.57,517.77 h 31.85 V 15960.2 h -60.29 c 181.52,182.4 371.73,356.2 569.98,520.6 99.12,82.2 200.24,162.1 303.3,239.6 v -94.8 h 9626.34 v 118.8 c 103.4,-76.9 204.9,-156.3 304.4,-238 199.1,-163.5 390.2,-336.3 572.6,-517.8 91.2,-90.7 180.3,-183.7 267.1,-278.7 h -122.9 v -5403.7" /></g><g
             transform="scale(2.25025)"
             id="g58"><path
               id="path60"
               style="fill:#f36595;fill-opacity:1;fill-rule:nonzero;stroke:none"
               d="M 14705.8,10305.4 V 7297.87 5388.61 h 153.2 c -156.9,-191.09 -322.8,-374.53 -497.1,-549.63 -174.2,-175.13 -356.8,-341.96 -547.1,-499.81 -95.2,-78.92 -192.3,-155.63 -291.2,-230.02 v 118.61 H 4282.36 v -141.72 c -99.29,73.91 -196.76,150.12 -292.31,228.56 -191.09,156.91 -374.53,322.81 -549.66,497.05 -175.13,174.25 -341.95,356.85 -499.81,547.19 h 304.69 V 15464.4 h -87.22 c 82.87,91.6 167.91,181.2 255.04,268.8 348.51,350.3 730.42,667.3 1140.59,945.9 v -53.5 h 8635.62 v 75.1 c 411.6,-276.6 795.1,-591.7 1145.3,-940.2 175.2,-174.2 342,-356.8 499.8,-547.2 h -128.6 v -4907.9" /></g><g
             transform="scale(2.25025)"
             id="g62"><path
               id="path64"
               style="fill:#f36596;fill-opacity:1;fill-rule:nonzero;stroke:none"
               d="M 14705.8,10304.6 V 7422.35 5872.83 h 123.4 c -70.8,-95.15 -143.8,-188.56 -219,-280.15 -150.4,-183.14 -309.4,-358.94 -476.4,-526.74 -334,-335.66 -700,-639.49 -1093,-906.48 v 68.3 H 4764.95 v -88.97 c -394.42,265 -761.94,567.01 -1097.6,900.97 -167.83,167.01 -327.7,342.01 -478.98,524.39 h 56.9 v 9415.35 h -80.44 c 150.37,183.1 309.36,358.9 476.36,526.7 333.99,335.7 699.99,639.5 1093.05,906.5 196.56,133.5 399.82,257.8 609.27,372.2 v -159.3 H 12399 v 177 c 210,-113.4 413.9,-236.7 611.1,-369.2 394.4,-265 761.9,-567 1097.6,-901 335.6,-334 639.4,-700 906.4,-1093 h -308.3 v -4134.8" /></g><g
             transform="scale(2.25025)"
             id="g66"><path
               id="path68"
               style="fill:#f46697;fill-opacity:1;fill-rule:nonzero;stroke:none"
               d="M 14705.8,10303.8 V 7546.87 6342.73 h 61.7 c -253.4,-377.25 -542.3,-728.76 -861.8,-1049.84 -319.4,-321.08 -669.5,-611.67 -1045.5,-867.06 -188,-127.68 -382.4,-246.55 -582.8,-356.05 v 157.98 H 5528.73 v -174.82 c -200.87,108.47 -395.96,226.37 -584.56,353.11 -377.25,253.49 -728.78,542.34 -1049.86,861.82 -321.06,319.48 -611.66,669.57 -867.04,1045.53 h 218 v 7916 h -237.79 c 253.49,377.3 542.34,728.8 861.8,1049.9 638.94,642.1 1400.37,1162.4 2246.41,1522.7 v -176.4 h 5511.01 v 190.2 c 847.9,-356.1 1611.9,-872.6 2254,-1511.5 321.1,-319.5 611.7,-669.5 867.1,-1045.5 h -42 v -3955" /></g><g
             transform="scale(2.25025)"
             id="g70"><path
               id="path72"
               style="fill:#f46798;fill-opacity:1;fill-rule:nonzero;stroke:none"
               d="M 14705.8,10303 V 7671.39 7079.98 h 131.6 c -103.6,-191.75 -216.2,-377.95 -337.1,-557.98 -242,-360.09 -517.7,-695.66 -822.7,-1002.16 -609.9,-612.95 -1336.7,-1109.57 -2144.2,-1453.53 v 161.45 H 6272.78 v -174.6 c -809.29,339.92 -1538.54,832.93 -2151.5,1442.82 -306.48,304.94 -583.87,639.13 -827.63,997.98 -121.89,179.45 -235.37,365.07 -339.87,556.29 h 291.49 v 6441.95 h -307.6 c 103.55,191.7 216.1,377.9 337.08,558 241.97,360.1 517.69,695.6 822.64,1002.1 609.87,613 1336.68,1109.6 2144.29,1453.5 403.77,172 827.77,305.8 1267.41,397 v -277.2 h 2723.71 v 284 c 440.1,-88.9 864.7,-220.6 1269.4,-390.6 809.3,-339.9 1538.6,-832.9 2151.6,-1442.8 306.4,-304.9 583.8,-639.1 827.6,-998 121.9,-179.4 235.3,-365.1 339.8,-556.3 h -115.4 V 10303" /></g><g
             transform="scale(2.25025)"
             id="g74"><path
               id="path76"
               style="fill:#f46899;fill-opacity:1;fill-rule:nonzero;stroke:none"
               d="M 14705.8,10302.2 V 7795.91 h 117.8 c -323.7,-770.76 -793.2,-1465.31 -1374.1,-2049.07 -580.8,-583.8 -1273,-1056.73 -2042.2,-1384.34 -384.5,-163.8 -788.3,-291.21 -1207,-378 v 243.26 H 7606.28 v -249.75 c -419.15,84.7 -823.6,210.11 -1208.98,371.96 C 5626.54,4673.71 4932,5143.22 4348.24,5724.09 3764.48,6304.91 3291.51,6997.1 2963.93,7766.26 h 281.34 V 12776.3 H 2951.4 c 323.74,770.7 793.24,1465.3 1374.09,2049.1 1161.69,1167.5 2768.8,1891.8 4545.94,1896.3 1777.17,4.4 3387.77,-711.9 4555.37,-1873.6 583.7,-580.8 1056.7,-1273 1384.3,-2042.2 h -105.3 v -2503.7" /></g><g
             transform="scale(2.25025)"
             id="g78"><path
               id="path80"
               style="fill:#f4699a;fill-opacity:1;fill-rule:nonzero;stroke:none"
               d="m 15001.3,10301.4 c 8.4,-3376.6 -2721.9,-6120.66 -6098.49,-6129.1 -1688.31,-4.22 -3218.45,676.24 -4327.62,1779.85 -554.56,551.81 -1003.88,1209.43 -1315.08,1940.1 -77.8,182.65 -146.97,369.87 -206.99,561.18 h 192.15 v 3636.17 h -201.25 c 59.07,191.6 127.3,379.1 204.19,562.2 307.54,732.2 753.57,1392 1305.38,1946.6 1103.62,1109.1 2630.34,1797.3 4318.64,1801.5 3376.57,8.4 6120.67,-2722 6129.07,-6098.5" /></g><g
             transform="scale(2.22072)"
             id="g82"><path
               id="path84"
               style="fill:#f46a9b;fill-opacity:1;fill-rule:nonzero;stroke:none"
               d="m 14874.7,10437.5 c 8.1,-3241.36 -2613,-5875.59 -5854.32,-5883.7 -3241.39,-8.06 -5875.63,2612.98 -5883.73,5854.4 -8.11,3241.4 2612.98,5875.6 5854.36,5883.7 3241.39,8.1 5875.59,-2613 5883.69,-5854.4" /></g><g
             transform="scale(2.17623)"
             id="g86"><path
               id="path88"
               style="fill:#f46b9c;fill-opacity:1;fill-rule:nonzero;stroke:none"
               d="m 14846.1,10650.1 c 7.8,-3123.93 -2518.3,-5662.68 -5642.22,-5670.49 -3123.83,-7.81 -5662.59,2518.3 -5670.4,5642.09 -7.81,3123.9 2518.26,5662.7 5642.14,5670.5 3123.88,7.8 5662.58,-2518.3 5670.48,-5642.1" /></g><g
             transform="scale(2.13175)"
             id="g90"><path
               id="path92"
               style="fill:#f46c9e;fill-opacity:1;fill-rule:nonzero;stroke:none"
               d="m 14816.2,10871.4 c 7.5,-3001.43 -2419.6,-5440.7 -5421.1,-5448.2 -3001.48,-7.51 -5440.71,2419.6 -5448.22,5421.1 -7.5,3001.5 2419.58,5440.7 5421.06,5448.2 3001.46,7.5 5440.76,-2419.6 5448.26,-5421.1" /></g><g
             transform="scale(2.08727)"
             id="g94"><path
               id="path96"
               style="fill:#f46d9f;fill-opacity:1;fill-rule:nonzero;stroke:none"
               d="M 14785,11102.3 C 14792.2,8228.42 12468.3,5892.87 9594.46,5885.69 6720.61,5878.5 4385.08,8202.4 4377.9,11076.3 c -7.18,2873.8 2316.69,5209.3 5190.54,5216.5 2873.86,7.2 5209.36,-2316.7 5216.56,-5190.5" /></g><g
             transform="scale(2.04278)"
             id="g98"><path
               id="path100"
               style="fill:#f46ea0;fill-opacity:1;fill-rule:nonzero;stroke:none"
               d="m 14752.5,11343.2 c 6.9,-2740.72 -2209.3,-4968.03 -4949.99,-4974.88 -2740.67,-6.85 -4967.97,2209.34 -4974.82,4949.98 -6.85,2740.7 2209.33,4968 4950,4974.8 2740.71,6.9 4968.01,-2209.3 4974.81,-4949.9" /></g><g
             transform="scale(1.9983)"
             id="g102"><path
               id="path104"
               style="fill:#f46fa1;fill-opacity:1;fill-rule:nonzero;stroke:none"
               d="m 14718.6,11594.8 c 6.5,-2601.6 -2097.2,-4715.85 -4698.8,-4722.36 -2601.54,-6.5 -4715.79,2097.19 -4722.3,4698.76 -6.5,2601.6 2097.19,4715.8 4698.75,4722.3 2601.55,6.5 4715.85,-2097.2 4722.35,-4698.7" /></g><g
             transform="scale(1.95382)"
             id="g106"><path
               id="path108"
               style="fill:#f470a2;fill-opacity:1;fill-rule:nonzero;stroke:none"
               d="m 14683.1,11857.8 c 6.2,-2456.1 -1980,-4452.19 -4436.1,-4458.33 -2456.09,-6.14 -4452.13,1979.97 -4458.28,4436.13 -6.14,2456.1 1979.98,4452.1 4436.08,4458.3 2456.1,6.1 4452.2,-1980 4458.3,-4436.1" /></g><g
             transform="scale(1.90933)"
             id="g110"><path
               id="path112"
               style="fill:#f471a3;fill-opacity:1;fill-rule:nonzero;stroke:none"
               d="m 14646,12133.1 c 5.7,-2303.91 -1857.3,-4176.24 -4161.2,-4182 -2303.88,-5.76 -4176.21,1857.25 -4181.97,4161.1 -5.76,2303.9 1857.25,4176.3 4161.17,4182 2303.9,5.8 4176.2,-1857.2 4182,-4161.1" /></g><g
             transform="scale(1.86485)"
             id="g114"><path
               id="path116"
               style="fill:#f472a4;fill-opacity:1;fill-rule:nonzero;stroke:none"
               d="m 14607,12421.5 c 5.4,-2144.4 -1728.6,-3887.08 -3873,-3892.44 -2144.46,-5.37 -3887.17,1728.64 -3892.53,3873.04 -5.37,2144.4 1728.66,3887.2 3873.03,3892.5 2144.5,5.4 3887.2,-1728.6 3892.5,-3873.1" /></g><g
             transform="scale(1.82037)"
             id="g118"><path
               id="path120"
               style="fill:#f573a5;fill-opacity:1;fill-rule:nonzero;stroke:none"
               d="m 14566.2,12724.1 c 4.9,-1977.2 -1593.8,-3583.92 -3570.9,-3588.86 -1977.18,-4.94 -3584,1593.76 -3588.94,3570.96 -4.94,1977.1 1593.85,3583.9 3570.94,3588.9 1977.2,4.9 3583.9,-1593.9 3588.9,-3571" /></g><g
             transform="scale(1.77588)"
             id="g122"><path
               id="path124"
               style="fill:#f572a6;fill-opacity:1;fill-rule:nonzero;stroke:none"
               d="m 14523.3,13041.8 c 4.5,-1801.5 -1452.2,-3265.48 -3253.6,-3269.99 -1801.51,-4.5 -3265.57,1452.19 -3270.07,3253.69 -4.51,1801.4 1452.23,3265.5 3253.67,3270 1801.5,4.5 3265.5,-1452.2 3270,-3253.7" /></g><g
             transform="scale(1.7314)"
             id="g126"><path
               id="path128"
               style="fill:#f574a7;fill-opacity:1;fill-rule:nonzero;stroke:none"
               d="m 14478.2,13375.8 c 4.1,-1616.8 -1303.3,-2930.7 -2920.1,-2934.8 -1616.77,-4 -2930.68,1303.4 -2934.73,2920.2 -4.04,1616.7 1303.34,2930.7 2920.13,2934.8 1616.8,4 2930.7,-1303.4 2934.7,-2920.2" /></g><g
             transform="scale(1.68691)"
             id="g130"><path
               id="path132"
               style="fill:#f575a8;fill-opacity:1;fill-rule:nonzero;stroke:none"
               d="m 14430.8,13727.5 c 3.6,-1422.4 -1146.6,-2578.3 -2569,-2581.9 -1422.3,-3.5 -2578.22,1146.7 -2581.78,2569 -3.55,1422.4 1146.58,2578.3 2568.98,2581.8 1422.3,3.6 2578.3,-1146.5 2581.8,-2568.9" /></g><g
             transform="scale(1.64243)"
             id="g134"><path
               id="path136"
               style="fill:#f576a9;fill-opacity:1;fill-rule:nonzero;stroke:none"
               d="m 14380.8,14098.2 c 3.1,-1217.4 -981.4,-2206.8 -2198.8,-2209.8 -1217.4,-3.1 -2206.72,981.4 -2209.76,2198.8 -3.05,1217.4 981.36,2206.7 2198.76,2209.8 1217.4,3 2206.8,-981.4 2209.8,-2198.8" /></g><g
             transform="scale(1.59794)"
             id="g138"><path
               id="path140"
               style="fill:#f577aa;fill-opacity:1;fill-rule:nonzero;stroke:none"
               d="m 14328,14489.5 c 2.5,-1001 -806.9,-1814.5 -1808,-1817 -1001,-2.5 -1814.6,806.9 -1817.1,1808 -2.5,1001 807,1814.6 1808,1817.1 1001.1,2.4 1814.6,-807 1817.1,-1808.1" /></g><g
             transform="scale(1.55347)"
             id="g142"><path
               id="path144"
               style="fill:#f578ab;fill-opacity:1;fill-rule:nonzero;stroke:none"
               d="m 14272.1,14903.3 c 2,-772.3 -622.5,-1399.9 -1394.8,-1401.9 -772.2,-1.9 -1399.9,622.6 -1401.8,1394.8 -1.9,772.3 622.5,1399.9 1394.8,1401.9 772.3,1.9 1399.9,-622.6 1401.8,-1394.8" /></g><g
             transform="scale(1.50898)"
             id="g146"><path
               id="path148"
               style="fill:#f579ac;fill-opacity:1;fill-rule:nonzero;stroke:none"
               d="m 14213,15341.3 c 1.4,-530 -427.2,-960.7 -957.2,-962 -530.1,-1.3 -960.8,427.2 -962.1,957.3 -1.4,530 427.3,960.7 957.3,962.1 530,1.3 960.7,-427.3 962,-957.4" /></g><g
             transform="scale(1.4645)"
             id="g150"><path
               id="path152"
               style="fill:#f57aad;fill-opacity:1;fill-rule:nonzero;stroke:none"
               d="m 14150.4,15806.1 c 0.7,-273.1 -220.2,-495 -493.2,-495.7 -273.1,-0.6 -495,220.2 -495.7,493.3 -0.7,273 220.2,494.9 493.2,495.6 273.1,0.7 495,-220.1 495.7,-493.2" /></g></g></g><g
         transform="scale(2.27005)"
         id="g154"><path
           id="path156"
           style="fill:#040606;fill-opacity:1;fill-rule:nonzero;stroke:none"
           d="m 7345.65,16069.2 c -182.95,0 -400.96,-64.6 -635.67,-190.6 -747.12,-401.1 -1628.99,-1408.5 -1868.9,-2558.2 -46.92,-224.4 -69.03,-456.8 -65.81,-690.6 l 0.57,-39.8 -29.56,-26.8 c -474.4,-429.6 -836.74,-941.2 -1076.94,-1520.5 -320.09,-772.1 -320.09,-1443.27 -320.09,-1765.82 0,-1061.65 327.24,-2074 946.33,-2927.64 868.22,-1197.55 2203.61,-1932.86 3663.67,-2017.4 91.36,-5.86 184.44,-8.68 285.05,-8.68 2039.7,0 3885.2,1300.19 4592.1,3235.43 l 20.5,55.9 59.5,1.99 c 690.6,23.12 1153.3,232.46 1302.8,589.32 v 0 c 207.7,496.16 -223.1,1225.48 -1124.5,1903.3 l -27.7,20.8 -6.1,34.2 c -418.8,2345.6 -2434.6,4055.9 -4793.16,4066.5 l -92.24,0.4 4.53,92.2 c 44.36,898.3 -183.69,1536.2 -610.03,1706.3 -66.52,26.6 -141.89,39.7 -224.35,39.7 z M 8244.3,4146.78 c -104.4,0 -201.18,2.9 -295.8,8.98 -1512.61,87.58 -2896.28,849.37 -3795.72,2089.96 -641.06,883.9 -979.93,1932.07 -979.93,3031.16 0,333.96 0,1028.92 333.53,1833.32 245.3,591.6 612.68,1115.3 1092.19,1557 -0.48,233.3 22.95,464.9 69.78,689.3 250.96,1202.4 1175.08,2257.2 1958.19,2677.5 392.77,210.9 741.66,266 1008.83,159.4 491.36,-196.1 753.29,-845.3 724.53,-1787.6 2392.8,-54 4426.9,-1795 4868.5,-4176.6 964.3,-733.69 1395.3,-1514.07 1153.5,-2091.54 v 0 c -173,-413.12 -669.2,-658.89 -1400.3,-695.06 C 12234.5,5468.68 10338.3,4146.78 8244.3,4146.78" /></g><g
         id="g158"><g
           clip-path="url(#clipPath164)"
           id="g160"><g
             transform="scale(1.56654)"
             id="g166"><path
               id="path168"
               style="fill:#295dac;fill-opacity:1;fill-rule:nonzero;stroke:none"
               d="m 11580.6,16300 985.4,-818.9 -33,-39.8 h -952.4 v 858.7" /></g><g
             transform="scale(1.56921)"
             id="g170"><path
               id="path172"
               style="fill:#295dac;fill-opacity:1;fill-rule:nonzero;stroke:none"
               d="m 11560.8,16300 997.5,-828.9 -13.7,-16.4 -983.8,817.5 v 27.8" /></g><g
             transform="scale(1.5719)"
             id="g174"><path
               id="path176"
               style="fill:#295cab;fill-opacity:1;fill-rule:nonzero;stroke:none"
               d="m 11541.1,16300 1009.4,-838.8 -13.7,-16.5 -995.7,827.5 v 27.8" /></g><g
             transform="scale(1.57458)"
             id="g178"><path
               id="path180"
               style="fill:#285baa;fill-opacity:1;fill-rule:nonzero;stroke:none"
               d="m 11521.4,16300 1021.4,-848.7 -13.7,-16.4 -1007.7,837.3 v 27.8" /></g><g
             transform="scale(1.57726)"
             id="g182"><path
               id="path184"
               style="fill:#285aa9;fill-opacity:1;fill-rule:nonzero;stroke:none"
               d="m 11501.9,16300 1033.1,-858.6 -13.5,-16.4 -1019.6,847.3 v 27.7" /></g><g
             transform="scale(1.57993)"
             id="g186"><path
               id="path188"
               style="fill:#285ba8;fill-opacity:1;fill-rule:nonzero;stroke:none"
               d="m 11482.4,16300 1045,-868.4 -13.6,-16.4 -1031.4,857.2 v 27.6" /></g><g
             transform="scale(1.58261)"
             id="g190"><path
               id="path192"
               style="fill:#285aa7;fill-opacity:1;fill-rule:nonzero;stroke:none"
               d="m 11462.9,16300 1056.9,-878.2 -13.6,-16.3 -1043.3,866.9 v 27.6" /></g><g
             transform="scale(1.58529)"
             id="g194"><path
               id="path196"
               style="fill:#2759a6;fill-opacity:1;fill-rule:nonzero;stroke:none"
               d="m 11443.6,16300 1068.5,-888 -13.5,-16.3 -1055,876.7 v 27.6" /></g><g
             transform="scale(1.58798)"
             id="g198"><path
               id="path200"
               style="fill:#2658a5;fill-opacity:1;fill-rule:nonzero;stroke:none"
               d="m 11424.2,16300 1080.3,-897.7 -13.5,-16.4 -1066.8,886.6 v 27.5" /></g><g
             transform="scale(1.59065)"
             id="g202"><path
               id="path204"
               style="fill:#2657a4;fill-opacity:1;fill-rule:nonzero;stroke:none"
               d="m 11405,16300 1092,-907.4 -13.5,-16.2 -1078.5,896.2 v 27.4" /></g><g
             transform="scale(1.59333)"
             id="g206"><path
               id="path208"
               style="fill:#2556a3;fill-opacity:1;fill-rule:nonzero;stroke:none"
               d="m 11385.8,16300 1103.7,-917.1 -13.5,-16.2 -1090.2,905.9 v 27.4" /></g><g
             transform="scale(1.59601)"
             id="g210"><path
               id="path212"
               style="fill:#2556a2;fill-opacity:1;fill-rule:nonzero;stroke:none"
               d="m 11366.7,16300 1115.2,-926.7 -13.4,-16.3 -1101.8,915.6 v 27.4" /></g><g
             transform="scale(1.59869)"
             id="g214"><path
               id="path216"
               style="fill:#2555a1;fill-opacity:1;fill-rule:nonzero;stroke:none"
               d="m 11347.6,16300 1126.8,-936.4 -13.4,-16.1 -1113.4,925.2 v 27.3" /></g><g
             transform="scale(1.60137)"
             id="g218"><path
               id="path220"
               style="fill:#2454a0;fill-opacity:1;fill-rule:nonzero;stroke:none"
               d="m 11328.7,16300 1138.3,-945.9 -13.4,-16.2 -1124.9,934.9 v 27.2" /></g><g
             transform="scale(1.60405)"
             id="g222"><path
               id="path224"
               style="fill:#24539f;fill-opacity:1;fill-rule:nonzero;stroke:none"
               d="m 11309.8,16300 1149.7,-955.5 -13.3,-16.1 -1136.4,944.4 v 27.2" /></g><g
             transform="scale(1.60673)"
             id="g226"><path
               id="path228"
               style="fill:#23529e;fill-opacity:1;fill-rule:nonzero;stroke:none"
               d="m 11290.9,16300 1161.2,-965 -13.4,-16.1 -1147.8,953.9 v 27.2" /></g><g
             transform="scale(1.60941)"
             id="g230"><path
               id="path232"
               style="fill:#23529d;fill-opacity:1;fill-rule:nonzero;stroke:none"
               d="m 11272.1,16300 1172.6,-974.5 -13.3,-16 -1159.3,963.3 v 27.2" /></g><g
             transform="scale(1.61209)"
             id="g234"><path
               id="path236"
               style="fill:#23529c;fill-opacity:1;fill-rule:nonzero;stroke:none"
               d="m 11253.4,16300 1184,-983.9 -13.3,-16 -1170.7,972.9 v 27" /></g><g
             transform="scale(1.61477)"
             id="g238"><path
               id="path240"
               style="fill:#22519a;fill-opacity:1;fill-rule:nonzero;stroke:none"
               d="m 11234.7,16300 1195.3,-993.3 -13.3,-16 -1182,982.2 v 27.1" /></g><g
             transform="scale(1.61593)"
             id="g242"><path
               id="path244"
               style="fill:#225098;fill-opacity:1;fill-rule:nonzero;stroke:none"
               d="m 11245,16300 1189.4,-988.4 -13.3,-16 -1194.5,992.6 v 11.8 h 18.4" /></g><g
             transform="scale(1.61593)"
             id="g246"><path
               id="path248"
               style="fill:#224f97;fill-opacity:1;fill-rule:nonzero;stroke:none"
               d="m 11277.5,16300 1170.1,-972.4 -13.2,-16 -1189.4,988.4 h 32.5" /></g><g
             transform="scale(1.61593)"
             id="g250"><path
               id="path252"
               style="fill:#234e95;fill-opacity:1;fill-rule:nonzero;stroke:none"
               d="m 11310,16300 1150.9,-956.4 -13.3,-16 -1170.1,972.4 h 32.5" /></g><g
             transform="scale(1.61593)"
             id="g254"><path
               id="path256"
               style="fill:#234d94;fill-opacity:1;fill-rule:nonzero;stroke:none"
               d="m 11342.5,16300 1131.7,-940.4 -13.3,-16 -1150.9,956.4 h 32.5" /></g><g
             transform="scale(1.61593)"
             id="g258"><path
               id="path260"
               style="fill:#234c92;fill-opacity:1;fill-rule:nonzero;stroke:none"
               d="m 11375,16300 1112.5,-924.4 -13.3,-16 -1131.7,940.4 h 32.5" /></g><g
             transform="scale(1.61593)"
             id="g262"><path
               id="path264"
               style="fill:#234c91;fill-opacity:1;fill-rule:nonzero;stroke:none"
               d="m 11407.5,16300 1093.3,-908.5 -13.3,-15.9 -1112.5,924.4 h 32.5" /></g><g
             transform="scale(1.61593)"
             id="g266"><path
               id="path268"
               style="fill:#234b90;fill-opacity:1;fill-rule:nonzero;stroke:none"
               d="m 11440.1,16300 1065.8,-885.7 v -16.6 l -5.1,-6.2 -1093.3,908.5 h 32.6" /></g><g
             transform="scale(1.61593)"
             id="g270"><path
               id="path272"
               style="fill:#234b8e;fill-opacity:1;fill-rule:nonzero;stroke:none"
               d="m 11472.6,16300 1033.3,-858.6 v -27.1 l -1065.8,885.7 h 32.5" /></g><g
             transform="scale(1.61593)"
             id="g274"><path
               id="path276"
               style="fill:#234a8d;fill-opacity:1;fill-rule:nonzero;stroke:none"
               d="m 11505.1,16300 1000.8,-831.6 v -27 l -1033.3,858.6 h 32.5" /></g><g
             transform="scale(1.61593)"
             id="g278"><path
               id="path280"
               style="fill:#24498c;fill-opacity:1;fill-rule:nonzero;stroke:none"
               d="m 11537.7,16300 968.2,-804.5 v -27.1 l -1000.8,831.6 h 32.6" /></g><g
             transform="scale(1.61593)"
             id="g282"><path
               id="path284"
               style="fill:#24488a;fill-opacity:1;fill-rule:nonzero;stroke:none"
               d="m 11570.2,16300 935.7,-777.6 v -26.9 l -968.2,804.5 h 32.5" /></g><g
             transform="scale(1.61593)"
             id="g286"><path
               id="path288"
               style="fill:#234887;fill-opacity:1;fill-rule:nonzero;stroke:none"
               d="m 11602.7,16300 903.2,-750.5 v -27.1 l -935.7,777.6 h 32.5" /></g><g
             transform="scale(1.61593)"
             id="g290"><path
               id="path292"
               style="fill:#234786;fill-opacity:1;fill-rule:nonzero;stroke:none"
               d="m 11635.2,16300 870.7,-723.5 v -27 l -903.2,750.5 h 32.5" /></g><g
             transform="scale(1.61593)"
             id="g294"><path
               id="path296"
               style="fill:#244684;fill-opacity:1;fill-rule:nonzero;stroke:none"
               d="m 11667.8,16300 838.1,-696.4 v -27.1 l -870.7,723.5 h 32.6" /></g><g
             transform="scale(1.61593)"
             id="g298"><path
               id="path300"
               style="fill:#244582;fill-opacity:1;fill-rule:nonzero;stroke:none"
               d="m 11700.2,16300 805.7,-669.5 v -26.9 l -838.1,696.4 h 32.4" /></g><g
             transform="scale(1.61593)"
             id="g302"><path
               id="path304"
               style="fill:#244480;fill-opacity:1;fill-rule:nonzero;stroke:none"
               d="m 11732.8,16300 773.1,-642.4 v -27.1 l -805.7,669.5 h 32.6" /></g><g
             transform="scale(1.61593)"
             id="g306"><path
               id="path308"
               style="fill:#24437f;fill-opacity:1;fill-rule:nonzero;stroke:none"
               d="m 11765.3,16300 740.6,-615.4 v -27 l -773.1,642.4 h 32.5" /></g><g
             transform="scale(1.61593)"
             id="g310"><path
               id="path312"
               style="fill:#24437e;fill-opacity:1;fill-rule:nonzero;stroke:none"
               d="m 11797.8,16300 708.1,-588.4 v -27 l -740.6,615.4 h 32.5" /></g><g
             transform="scale(1.61593)"
             id="g314"><path
               id="path316"
               style="fill:#24427c;fill-opacity:1;fill-rule:nonzero;stroke:none"
               d="m 11830.4,16300 675.5,-561.3 v -27.1 l -708.1,588.4 h 32.6" /></g><g
             transform="scale(1.61593)"
             id="g318"><path
               id="path320"
               style="fill:#24427b;fill-opacity:1;fill-rule:nonzero;stroke:none"
               d="m 11862.9,16300 643,-534.3 v -27 l -675.5,561.3 h 32.5" /></g><g
             transform="scale(1.61593)"
             id="g322"><path
               id="path324"
               style="fill:#244179;fill-opacity:1;fill-rule:nonzero;stroke:none"
               d="m 11895.4,16300 610.5,-507.3 v -27 l -643,534.3 h 32.5" /></g><g
             transform="scale(1.61593)"
             id="g326"><path
               id="path328"
               style="fill:#244077;fill-opacity:1;fill-rule:nonzero;stroke:none"
               d="m 11927.9,16300 578,-480.3 v -27 l -610.5,507.3 h 32.5" /></g><g
             transform="scale(1.61593)"
             id="g330"><path
               id="path332"
               style="fill:#243f75;fill-opacity:1;fill-rule:nonzero;stroke:none"
               d="m 11960.5,16300 545.4,-453.2 v -27.1 l -578,480.3 h 32.6" /></g><g
             transform="scale(1.61593)"
             id="g334"><path
               id="path336"
               style="fill:#243e74;fill-opacity:1;fill-rule:nonzero;stroke:none"
               d="m 11993,16300 512.9,-426.2 v -27 l -545.4,453.2 h 32.5" /></g><g
             transform="scale(1.61593)"
             id="g338"><path
               id="path340"
               style="fill:#233e73;fill-opacity:1;fill-rule:nonzero;stroke:none"
               d="m 12025.5,16300 480.4,-399.2 v -27 L 11993,16300 h 32.5" /></g><g
             transform="scale(1.61593)"
             id="g342"><path
               id="path344"
               style="fill:#233d71;fill-opacity:1;fill-rule:nonzero;stroke:none"
               d="m 12058.1,16300 447.8,-372.2 v -27 l -480.4,399.2 h 32.6" /></g><g
             transform="scale(1.61593)"
             id="g346"><path
               id="path348"
               style="fill:#233c70;fill-opacity:1;fill-rule:nonzero;stroke:none"
               d="m 12090.5,16300 415.4,-345.1 v -27.1 l -447.8,372.2 h 32.4" /></g><g
             transform="scale(1.61593)"
             id="g350"><path
               id="path352"
               style="fill:#233c70;fill-opacity:1;fill-rule:nonzero;stroke:none"
               d="m 12123.1,16300 382.8,-318.1 v -27 l -415.4,345.1 h 32.6" /></g><g
             transform="scale(1.61593)"
             id="g354"><path
               id="path356"
               style="fill:#233b6f;fill-opacity:1;fill-rule:nonzero;stroke:none"
               d="m 12155.6,16300 350.3,-291 v -27.1 l -382.8,318.1 h 32.5" /></g><g
             transform="scale(1.61593)"
             id="g358"><path
               id="path360"
               style="fill:#233a6d;fill-opacity:1;fill-rule:nonzero;stroke:none"
               d="m 12188.1,16300 317.8,-264.1 v -26.9 l -350.3,291 h 32.5" /></g><g
             transform="scale(1.61593)"
             id="g362"><path
               id="path364"
               style="fill:#233a6c;fill-opacity:1;fill-rule:nonzero;stroke:none"
               d="m 12220.6,16300 285.3,-237 v -27.1 l -317.8,264.1 h 32.5" /></g><g
             transform="scale(1.61593)"
             id="g366"><path
               id="path368"
               style="fill:#23396b;fill-opacity:1;fill-rule:nonzero;stroke:none"
               d="m 12253.2,16300 252.7,-210 v -27 l -285.3,237 h 32.6" /></g><g
             transform="scale(1.61593)"
             id="g370"><path
               id="path372"
               style="fill:#233969;fill-opacity:1;fill-rule:nonzero;stroke:none"
               d="m 12285.7,16300 220.2,-182.9 v -27.1 l -252.7,210 h 32.5" /></g><g
             transform="scale(1.61593)"
             id="g374"><path
               id="path376"
               style="fill:#223868;fill-opacity:1;fill-rule:nonzero;stroke:none"
               d="m 12318.2,16300 187.7,-155.9 v -27 l -220.2,182.9 h 32.5" /></g><g
             transform="scale(1.61593)"
             id="g378"><path
               id="path380"
               style="fill:#223766;fill-opacity:1;fill-rule:nonzero;stroke:none"
               d="m 12350.8,16300 155.1,-128.9 v -27 l -187.7,155.9 h 32.6" /></g><g
             transform="scale(1.61593)"
             id="g382"><path
               id="path384"
               style="fill:#223665;fill-opacity:1;fill-rule:nonzero;stroke:none"
               d="m 12383.3,16300 122.6,-101.9 v -27 l -155.1,128.9 h 32.5" /></g><g
             transform="scale(1.61593)"
             id="g386"><path
               id="path388"
               style="fill:#223664;fill-opacity:1;fill-rule:nonzero;stroke:none"
               d="m 12415.8,16300 90.1,-74.8 v -27.1 l -122.6,101.9 h 32.5" /></g><g
             transform="scale(1.61593)"
             id="g390"><path
               id="path392"
               style="fill:#213563;fill-opacity:1;fill-rule:nonzero;stroke:none"
               d="m 12448.3,16300 57.6,-47.8 v -27 l -90.1,74.8 h 32.5" /></g><g
             transform="scale(1.61593)"
             id="g394"><path
               id="path396"
               style="fill:#213461;fill-opacity:1;fill-rule:nonzero;stroke:none"
               d="m 12480.8,16300 25.1,-20.8 v -27 l -57.6,47.8 h 32.5" /></g><g
             transform="scale(1.61593)"
             id="g398"><path
               id="path400"
               style="fill:#213360;fill-opacity:1;fill-rule:nonzero;stroke:none"
               d="m 12505.9,16279.2 -25.1,20.8 h 25.1 v -20.8" /></g></g></g><g
         transform="scale(1.62207)"
         id="g402"><path
           id="path404"
           style="fill:#040606;fill-opacity:1;fill-rule:nonzero;stroke:none"
           d="m 11337.3,16011.7 c -70.5,-488.6 7.4,-846.1 212.6,-935.1 190.9,-82.4 479.6,74.9 770.3,414 -156.4,-16.4 -401.2,-7 -640.4,145.8 -173,110 -278.7,252.8 -342.5,375.3 z m 320.1,-1079.9 c -55.3,0 -107.7,10.4 -156.5,31.6 -295.1,127.8 -389.2,621.4 -245.7,1287.9 6.1,28 30.5,48.2 59.2,48.7 28.1,-1.1 53.9,-18.8 61,-46.5 25.1,-99.4 111.7,-348.3 370.7,-513 292.7,-187 595.6,-128.3 681.4,-105.9 18.4,4.8 37.8,0.9 52.9,-10.6 l 15.5,-11.7 c 13.1,-9.9 21.7,-24.7 23.8,-41 2.2,-16.3 -2.3,-32.9 -12.3,-45.9 -295.6,-383.2 -601.3,-593.6 -850,-593.6" /></g><g
         transform="scale(1.84649)"
         id="g406"><path
           id="path408"
           style="fill:#040606;fill-opacity:1;fill-rule:nonzero;stroke:none"
           d="m 11373.7,14411.1 c -124.1,-285.7 -273.2,-538.3 -429.3,-739.5 l -13.6,10.3 c -49.9,-13 -350.2,-86.2 -641.4,99.8 -251.6,159.9 -329.59,406.1 -349.14,483 0,0.6 0,0.6 0,0.6 46.08,212.5 119.34,440.8 219.64,672.8 355.1,817.6 914,1361.9 1249.1,1216.6 335.6,-145.3 319.8,-926 -35.3,-1743.6" /></g><g
         transform="scale(1.85373)"
         id="g410"><path
           id="path412"
           style="fill:#040606;fill-opacity:1;fill-rule:nonzero;stroke:none"
           d="m 11329.3,14354.9 h 0.6 z m -1372.36,-144.4 c 25.63,-93.6 104.36,-299.1 321.26,-437.1 256.1,-163.6 521.2,-112.2 596.2,-92.6 2.7,0.6 5.4,1.1 8.1,1.4 148.2,196.9 285.1,436 397.3,694.2 251.6,579.4 338.6,1176.6 216.3,1486.1 -35.8,90.6 -87.3,151 -153.1,179.6 -300.6,130.2 -838,-411.8 -1173.3,-1183.9 -94.4,-218.4 -166,-436.3 -212.76,-647.7 z m 726.06,-660.9 c -130.6,0 -298.2,27.6 -462.8,132.7 -259.26,164.9 -345.9,414 -371.09,513.5 -1.08,4.3 -1.67,8.7 -1.67,13.2 0,3.9 0.43,8.2 1.24,12 48.17,222.1 122.83,451 221.92,680.2 371,854.2 948.6,1398.8 1315.3,1240 93.1,-40.3 163.9,-120.8 210.7,-238.9 134.2,-339.7 48.7,-955.6 -217.8,-1568.9 v 0 c -121.6,-280 -271.8,-538.7 -434.5,-748.3 -16.2,-20.8 -44.8,-26.7 -67.5,-14.8 -42.7,-9.5 -110.7,-20.7 -193.8,-20.7" /></g><g
         id="g414"><g
           clip-path="url(#clipPath420)"
           id="g416"><g
             transform="scale(1.47652)"
             id="g422"><path
               id="path424"
               style="fill:#295dac;fill-opacity:1;fill-rule:nonzero;stroke:none"
               d="m 15582.4,16300 v -1372.3 h -23.6 V 16300 h 23.6" /></g><g
             transform="scale(1.47652)"
             id="g426"><path
               id="path428"
               style="fill:#295cab;fill-opacity:1;fill-rule:nonzero;stroke:none"
               d="m 15605.9,16300 v -1372.3 h -23.5 V 16300 h 23.5" /></g><g
             transform="scale(1.47652)"
             id="g430"><path
               id="path432"
               style="fill:#285baa;fill-opacity:1;fill-rule:nonzero;stroke:none"
               d="m 15629.5,16300 v -1372.3 h -23.6 V 16300 h 23.6" /></g><g
             transform="scale(1.47652)"
             id="g434"><path
               id="path436"
               style="fill:#285aa9;fill-opacity:1;fill-rule:nonzero;stroke:none"
               d="m 15653.1,16300 v -1372.3 h -23.6 V 16300 h 23.6" /></g><g
             transform="scale(1.47652)"
             id="g438"><path
               id="path440"
               style="fill:#285ba8;fill-opacity:1;fill-rule:nonzero;stroke:none"
               d="m 15676.7,16300 v -1372.3 h -23.6 V 16300 h 23.6" /></g><g
             transform="scale(1.47652)"
             id="g442"><path
               id="path444"
               style="fill:#285aa7;fill-opacity:1;fill-rule:nonzero;stroke:none"
               d="m 15700.3,16300 v -1372.3 h -23.6 V 16300 h 23.6" /></g><g
             transform="scale(1.47652)"
             id="g446"><path
               id="path448"
               style="fill:#2759a6;fill-opacity:1;fill-rule:nonzero;stroke:none"
               d="m 15723.8,16300 v -1372.3 h -23.5 V 16300 h 23.5" /></g><g
             transform="scale(1.47652)"
             id="g450"><path
               id="path452"
               style="fill:#2658a5;fill-opacity:1;fill-rule:nonzero;stroke:none"
               d="m 15747.4,16300 v -1372.3 h -23.6 V 16300 h 23.6" /></g><g
             transform="scale(1.47652)"
             id="g454"><path
               id="path456"
               style="fill:#2657a4;fill-opacity:1;fill-rule:nonzero;stroke:none"
               d="m 15771,16300 v -1372.3 h -23.6 V 16300 h 23.6" /></g><g
             transform="scale(1.47652)"
             id="g458"><path
               id="path460"
               style="fill:#2556a3;fill-opacity:1;fill-rule:nonzero;stroke:none"
               d="M 15794.6,16300 V 14927.7 H 15771 V 16300 h 23.6" /></g><g
             transform="scale(1.47652)"
             id="g462"><path
               id="path464"
               style="fill:#2556a2;fill-opacity:1;fill-rule:nonzero;stroke:none"
               d="m 15818.1,16300 v -1372.3 h -23.5 V 16300 h 23.5" /></g><g
             transform="scale(1.47652)"
             id="g466"><path
               id="path468"
               style="fill:#2555a1;fill-opacity:1;fill-rule:nonzero;stroke:none"
               d="m 15841.7,16300 v -1372.3 h -23.6 V 16300 h 23.6" /></g><g
             transform="scale(1.47652)"
             id="g470"><path
               id="path472"
               style="fill:#2454a0;fill-opacity:1;fill-rule:nonzero;stroke:none"
               d="m 15865.3,16300 v -1372.3 h -23.6 V 16300 h 23.6" /></g><g
             transform="scale(1.47652)"
             id="g474"><path
               id="path476"
               style="fill:#24539f;fill-opacity:1;fill-rule:nonzero;stroke:none"
               d="m 15888.8,16300 v -1372.3 h -23.5 V 16300 h 23.5" /></g><g
             transform="scale(1.47652)"
             id="g478"><path
               id="path480"
               style="fill:#23529e;fill-opacity:1;fill-rule:nonzero;stroke:none"
               d="m 15912.4,16300 v -1372.3 h -23.6 V 16300 h 23.6" /></g><g
             transform="scale(1.47652)"
             id="g482"><path
               id="path484"
               style="fill:#23529d;fill-opacity:1;fill-rule:nonzero;stroke:none"
               d="m 15936,16300 v -1372.3 h -23.6 V 16300 h 23.6" /></g><g
             transform="scale(1.47652)"
             id="g486"><path
               id="path488"
               style="fill:#23529c;fill-opacity:1;fill-rule:nonzero;stroke:none"
               d="M 15959.6,16300 V 14927.7 H 15936 V 16300 h 23.6" /></g><g
             transform="scale(1.47652)"
             id="g490"><path
               id="path492"
               style="fill:#22519a;fill-opacity:1;fill-rule:nonzero;stroke:none"
               d="m 15983.2,16300 v -1372.3 h -23.6 V 16300 h 23.6" /></g><g
             transform="scale(1.47652)"
             id="g494"><path
               id="path496"
               style="fill:#225098;fill-opacity:1;fill-rule:nonzero;stroke:none"
               d="m 16006.7,16300 v -1372.3 h -23.5 V 16300 h 23.5" /></g><g
             transform="scale(1.47652)"
             id="g498"><path
               id="path500"
               style="fill:#224f97;fill-opacity:1;fill-rule:nonzero;stroke:none"
               d="m 16030.3,16300 v -1372.3 h -23.6 V 16300 h 23.6" /></g><g
             transform="scale(1.47652)"
             id="g502"><path
               id="path504"
               style="fill:#234e95;fill-opacity:1;fill-rule:nonzero;stroke:none"
               d="m 16053.9,16300 v -1372.3 h -23.6 V 16300 h 23.6" /></g><g
             transform="scale(1.47652)"
             id="g506"><path
               id="path508"
               style="fill:#234d94;fill-opacity:1;fill-rule:nonzero;stroke:none"
               d="m 16077.5,16300 v -1372.3 h -23.6 V 16300 h 23.6" /></g><g
             transform="scale(1.47652)"
             id="g510"><path
               id="path512"
               style="fill:#234c92;fill-opacity:1;fill-rule:nonzero;stroke:none"
               d="m 16101,16300 v -1372.3 h -23.5 V 16300 h 23.5" /></g><g
             transform="scale(1.47652)"
             id="g514"><path
               id="path516"
               style="fill:#234c91;fill-opacity:1;fill-rule:nonzero;stroke:none"
               d="M 16124.6,16300 V 14927.7 H 16101 V 16300 h 23.6" /></g><g
             transform="scale(1.47652)"
             id="g518"><path
               id="path520"
               style="fill:#234b90;fill-opacity:1;fill-rule:nonzero;stroke:none"
               d="m 16148.2,16300 v -1372.3 h -23.6 V 16300 h 23.6" /></g><g
             transform="scale(1.47652)"
             id="g522"><path
               id="path524"
               style="fill:#234b8e;fill-opacity:1;fill-rule:nonzero;stroke:none"
               d="m 16171.7,16300 v -1372.3 h -23.5 V 16300 h 23.5" /></g><g
             transform="scale(1.47652)"
             id="g526"><path
               id="path528"
               style="fill:#234a8d;fill-opacity:1;fill-rule:nonzero;stroke:none"
               d="m 16195.4,16300 v -1372.3 h -23.7 V 16300 h 23.7" /></g><g
             transform="scale(1.47652)"
             id="g530"><path
               id="path532"
               style="fill:#24498c;fill-opacity:1;fill-rule:nonzero;stroke:none"
               d="m 16218.9,16300 v -1372.3 h -23.5 V 16300 h 23.5" /></g><g
             transform="scale(1.47652)"
             id="g534"><path
               id="path536"
               style="fill:#24488a;fill-opacity:1;fill-rule:nonzero;stroke:none"
               d="m 16242.5,16300 v -1372.3 h -23.6 V 16300 h 23.6" /></g><g
             transform="scale(1.47652)"
             id="g538"><path
               id="path540"
               style="fill:#234887;fill-opacity:1;fill-rule:nonzero;stroke:none"
               d="m 16266.1,16300 v -1372.3 h -23.6 V 16300 h 23.6" /></g><g
             transform="scale(1.47652)"
             id="g542"><path
               id="path544"
               style="fill:#234786;fill-opacity:1;fill-rule:nonzero;stroke:none"
               d="m 16289.6,16300 v -1372.3 h -23.5 V 16300 h 23.5" /></g><g
             transform="scale(1.47772)"
             id="g546"><path
               id="path548"
               style="fill:#244684;fill-opacity:1;fill-rule:nonzero;stroke:none"
               d="m 16300,16286.8 v -1371.2 h -23.6 v 1371.2 h 23.6" /></g><g
             transform="scale(1.47985)"
             id="g550"><path
               id="path552"
               style="fill:#244582;fill-opacity:1;fill-rule:nonzero;stroke:none"
               d="m 16300,16263.3 v -1369.2 h -23.5 v 1369.2 h 23.5" /></g><g
             transform="scale(1.48199)"
             id="g554"><path
               id="path556"
               style="fill:#244480;fill-opacity:1;fill-rule:nonzero;stroke:none"
               d="m 16300,16239.9 v -1367.2 h -23.5 v 1367.2 h 23.5" /></g><g
             transform="scale(1.48412)"
             id="g558"><path
               id="path560"
               style="fill:#24437f;fill-opacity:1;fill-rule:nonzero;stroke:none"
               d="m 16300,16216.5 v -1365.2 h -23.5 v 1365.2 h 23.5" /></g><g
             transform="scale(1.48626)"
             id="g562"><path
               id="path564"
               style="fill:#24437e;fill-opacity:1;fill-rule:nonzero;stroke:none"
               d="m 16300,16193.2 v -1363.3 h -23.4 v 1363.3 h 23.4" /></g><g
             transform="scale(1.4884)"
             id="g566"><path
               id="path568"
               style="fill:#24427c;fill-opacity:1;fill-rule:nonzero;stroke:none"
               d="m 16300,16169.9 v -1361.3 h -23.4 v 1361.3 h 23.4" /></g><g
             transform="scale(1.49053)"
             id="g570"><path
               id="path572"
               style="fill:#24427b;fill-opacity:1;fill-rule:nonzero;stroke:none"
               d="m 16300,16146.8 v -1359.4 h -23.3 v 1359.4 h 23.3" /></g><g
             transform="scale(1.49267)"
             id="g574"><path
               id="path576"
               style="fill:#244179;fill-opacity:1;fill-rule:nonzero;stroke:none"
               d="m 16300,16123.7 v -1357.5 h -23.3 v 1357.5 h 23.3" /></g><g
             transform="scale(1.4948)"
             id="g578"><path
               id="path580"
               style="fill:#244077;fill-opacity:1;fill-rule:nonzero;stroke:none"
               d="m 16300,16100.6 v -1355.5 h -23.3 v 1355.5 h 23.3" /></g><g
             transform="scale(1.49694)"
             id="g582"><path
               id="path584"
               style="fill:#243f75;fill-opacity:1;fill-rule:nonzero;stroke:none"
               d="m 16300,16077.7 v -1353.6 h -23.2 v 1353.6 h 23.2" /></g><g
             transform="scale(1.49907)"
             id="g586"><path
               id="path588"
               style="fill:#243e74;fill-opacity:1;fill-rule:nonzero;stroke:none"
               d="m 16300,16054.8 v -1351.7 h -23.2 v 1351.7 h 23.2" /></g><g
             transform="scale(1.50121)"
             id="g590"><path
               id="path592"
               style="fill:#233e73;fill-opacity:1;fill-rule:nonzero;stroke:none"
               d="m 16300,16032 v -1349.8 h -23.2 V 16032 h 23.2" /></g><g
             transform="scale(1.50334)"
             id="g594"><path
               id="path596"
               style="fill:#233d71;fill-opacity:1;fill-rule:nonzero;stroke:none"
               d="m 16300,16009.2 v -1347.8 h -23.1 v 1347.8 h 23.1" /></g><g
             transform="scale(1.50548)"
             id="g598"><path
               id="path600"
               style="fill:#233c70;fill-opacity:1;fill-rule:nonzero;stroke:none"
               d="m 16300,15986.5 v -1345.9 h -23.1 v 1345.9 h 23.1" /></g><g
             transform="scale(1.50761)"
             id="g602"><path
               id="path604"
               style="fill:#233c70;fill-opacity:1;fill-rule:nonzero;stroke:none"
               d="m 16300,15963.8 v -1343.9 h -23.1 v 1343.9 h 23.1" /></g><g
             transform="scale(1.50975)"
             id="g606"><path
               id="path608"
               style="fill:#233b6f;fill-opacity:1;fill-rule:nonzero;stroke:none"
               d="m 16300,15941.3 v -1342.1 h -23 v 1342.1 h 23" /></g><g
             transform="scale(1.51189)"
             id="g610"><path
               id="path612"
               style="fill:#233a6d;fill-opacity:1;fill-rule:nonzero;stroke:none"
               d="m 16300,15918.7 v -1340.2 h -23.1 v 1340.2 h 23.1" /></g><g
             transform="scale(1.51402)"
             id="g614"><path
               id="path616"
               style="fill:#233a6c;fill-opacity:1;fill-rule:nonzero;stroke:none"
               d="M 16300,15896.2 V 14558 h -23 v 1338.2 h 23" /></g><g
             transform="scale(1.51616)"
             id="g618"><path
               id="path620"
               style="fill:#23396b;fill-opacity:1;fill-rule:nonzero;stroke:none"
               d="m 16300,15873.9 v -1336.4 h -23 v 1336.4 h 23" /></g><g
             transform="scale(1.51829)"
             id="g622"><path
               id="path624"
               style="fill:#233969;fill-opacity:1;fill-rule:nonzero;stroke:none"
               d="M 16300,15851.5 V 14517 h -22.9 v 1334.5 h 22.9" /></g><g
             transform="scale(1.52043)"
             id="g626"><path
               id="path628"
               style="fill:#223868;fill-opacity:1;fill-rule:nonzero;stroke:none"
               d="m 16300,15829.3 v -1332.7 h -22.9 v 1332.7 h 22.9" /></g><g
             transform="scale(1.52256)"
             id="g630"><path
               id="path632"
               style="fill:#223766;fill-opacity:1;fill-rule:nonzero;stroke:none"
               d="m 16300,15807.1 v -1330.8 h -22.9 v 1330.8 h 22.9" /></g><g
             transform="scale(1.5247)"
             id="g634"><path
               id="path636"
               style="fill:#223665;fill-opacity:1;fill-rule:nonzero;stroke:none"
               d="M 16300,15784.9 V 14456 h -22.8 v 1328.9 h 22.8" /></g><g
             transform="scale(1.52683)"
             id="g638"><path
               id="path640"
               style="fill:#223664;fill-opacity:1;fill-rule:nonzero;stroke:none"
               d="m 16300,15762.9 v -1327.1 h -22.8 v 1327.1 h 22.8" /></g><g
             transform="scale(1.52897)"
             id="g642"><path
               id="path644"
               style="fill:#213563;fill-opacity:1;fill-rule:nonzero;stroke:none"
               d="m 16300,15740.9 v -1325.2 h -22.8 v 1325.2 h 22.8" /></g><g
             transform="scale(1.5311)"
             id="g646"><path
               id="path648"
               style="fill:#213461;fill-opacity:1;fill-rule:nonzero;stroke:none"
               d="m 16300,15718.9 v -1323.3 h -22.7 v 1323.3 h 22.7" /></g><g
             transform="scale(1.53324)"
             id="g650"><path
               id="path652"
               style="fill:#213360;fill-opacity:1;fill-rule:nonzero;stroke:none"
               d="m 16300,15697 v -1321.5 h -22.7 V 15697 h 22.7" /></g><g
             transform="scale(1.53324)"
             id="g654"><path
               id="path656"
               style="fill:#213360;fill-opacity:1;fill-rule:nonzero;stroke:none"
               d="M 16300,14375.5 V 15697 14375.5" /></g></g></g><g
         transform="scale(1.53987)"
         id="g658"><path
           id="path660"
           style="fill:#040606;fill-opacity:1;fill-rule:nonzero;stroke:none"
           d="m 14984,15412.8 c -8.7,-525.3 122.6,-892.7 351.6,-958 212.3,-60.3 493.2,147.1 751.8,546.6 -173.4,-37.1 -428.8,-51.3 -696,75.2 -190.2,89.7 -320.7,218.9 -407.4,336.2 z m 425.5,-1098.1 c -37.3,0 -73.8,5 -109.5,15.1 -326,92.9 -492.7,592.9 -435.1,1304.9 2.4,29.3 24.2,53.5 53.2,58.7 29.7,5.2 57.9,-9.6 70.4,-36.3 55.7,-118.4 189.3,-336.1 458.4,-462.9 330.4,-156.3 641.4,-67.9 759.8,-22.8 25.6,9.7 54.7,2.5 72.6,-18.4 17.8,-20.9 20.7,-50.8 7.1,-74.6 -279.2,-488.3 -598.9,-763.7 -876.9,-763.7" /></g><g
         transform="scale(1.72255)"
         id="g662"><path
           id="path664"
           style="fill:#040606;fill-opacity:1;fill-rule:nonzero;stroke:none"
           d="m 14848.6,14335.1 c -88.9,-312.7 -207.5,-594.6 -340,-827 -95.9,-36.6 -400.4,-131.3 -724.7,22.1 -272.6,128.4 -397,355.1 -437.6,441.7 18,233.6 63.3,489.3 138.3,752 261.5,918.2 778.8,1576.1 1155.4,1469.2 376.6,-107.6 470.1,-939.2 208.6,-1858" /></g><g
         transform="scale(1.72959)"
         id="g666"><path
           id="path668"
           style="fill:#040606;fill-opacity:1;fill-rule:nonzero;stroke:none"
           d="m 14449.6,13453.1 h 0.6 z M 13351,13926 c 53.1,-107.8 171.9,-290.3 401.5,-398.5 277.7,-131.4 540,-68.7 657.2,-27.4 129.5,231.1 240.9,504.6 322.8,792.5 v 0 c 247,867.8 170.1,1682.4 -168,1779 -338.7,96.2 -832,-556 -1079.1,-1423.4 -70.1,-245.9 -115.3,-488.8 -134.4,-722.2 z m 755.9,-593.2 c -121.7,0 -260.8,22.4 -403.8,90 -272.4,128.3 -407.3,348 -463.5,467.6 -4.3,9.1 -6.1,19.1 -5.3,29 18.9,245.9 66,501.8 139.8,760.5 273.4,959.8 810,1620.1 1222.1,1503 412.2,-117.7 520.9,-962 247.7,-1921.9 v 0 c -86.6,-304.4 -205.6,-593.6 -344,-836.5 -6.7,-11.7 -17.1,-20.7 -29.6,-25.4 -68.3,-26.1 -200.3,-66.3 -363.4,-66.3" /></g><g
         id="g670"><g
           clip-path="url(#clipPath676)"
           id="g672"><g
             transform="scale(1.19815)"
             id="g678"><path
               id="path680"
               style="fill:#c8145c;fill-opacity:1;fill-rule:nonzero;stroke:none"
               d="M 16300,16183.4 V 5227.96 h -582.7 V 16183.4 h 582.7" /></g><g
             transform="scale(1.24099)"
             id="g682"><path
               id="path684"
               style="fill:#c9145c;fill-opacity:1;fill-rule:nonzero;stroke:none"
               d="M 16300,15624.8 V 5047.51 h -562.6 V 15624.8 h 562.6" /></g><g
             transform="scale(1.28382)"
             id="g686"><path
               id="path688"
               style="fill:#ca145d;fill-opacity:1;fill-rule:nonzero;stroke:none"
               d="M 16300,15103.5 V 4879.1 h -543.8 v 10224.4 h 543.8" /></g><g
             transform="scale(1.32665)"
             id="g690"><path
               id="path692"
               style="fill:#cb145d;fill-opacity:1;fill-rule:nonzero;stroke:none"
               d="M 16300,14615.9 V 4721.59 h -526.2 v 9894.31 h 526.2" /></g><g
             transform="scale(1.36948)"
             id="g694"><path
               id="path696"
               style="fill:#cc145e;fill-opacity:1;fill-rule:nonzero;stroke:none"
               d="M 16300,14158.8 V 4573.91 h -509.8 v 9584.89 h 509.8" /></g><g
             transform="scale(1.41232)"
             id="g698"><path
               id="path700"
               style="fill:#cd145e;fill-opacity:1;fill-rule:nonzero;stroke:none"
               d="M 16300,13729.3 V 4435.19 h -494.4 v 9294.11 h 494.4" /></g><g
             transform="scale(1.45515)"
             id="g702"><path
               id="path704"
               style="fill:#ce155e;fill-opacity:1;fill-rule:nonzero;stroke:none"
               d="M 16300,13325.2 V 4304.65 h -479.7 v 9020.55 h 479.7" /></g><g
             transform="scale(1.49798)"
             id="g706"><path
               id="path708"
               style="fill:#cf155f;fill-opacity:1;fill-rule:nonzero;stroke:none"
               d="M 16300,12944.2 V 4181.56 h -466.1 v 8762.64 h 466.1" /></g><g
             transform="scale(1.54082)"
             id="g710"><path
               id="path712"
               style="fill:#d0155f;fill-opacity:1;fill-rule:nonzero;stroke:none"
               d="M 16300,12584.4 V 4065.31 h -453.1 v 8519.09 h 453.1" /></g><g
             transform="scale(1.58364)"
             id="g714"><path
               id="path716"
               style="fill:#d31560;fill-opacity:1;fill-rule:nonzero;stroke:none"
               d="M 16300,12244 V 3955.37 h -440.8 V 12244 h 440.8" /></g><g
             transform="scale(1.62648)"
             id="g718"><path
               id="path720"
               style="fill:#d41560;fill-opacity:1;fill-rule:nonzero;stroke:none"
               d="M 16300,11921.6 V 3851.2 h -429.3 v 8070.4 h 429.3" /></g><g
             transform="scale(1.66931)"
             id="g722"><path
               id="path724"
               style="fill:#d61560;fill-opacity:1;fill-rule:nonzero;stroke:none"
               d="M 16300,11615.7 V 3752.38 h -418.3 v 7863.32 h 418.3" /></g><g
             transform="scale(1.71215)"
             id="g726"><path
               id="path728"
               style="fill:#d71461;fill-opacity:1;fill-rule:nonzero;stroke:none"
               d="M 16300,11325.1 V 3658.5 h -407.8 v 7666.6 h 407.8" /></g><g
             transform="scale(1.75498)"
             id="g730"><path
               id="path732"
               style="fill:#d81561;fill-opacity:1;fill-rule:nonzero;stroke:none"
               d="M 16300,11048.7 V 3569.22 h -397.8 v 7479.48 h 397.8" /></g><g
             transform="scale(1.79781)"
             id="g734"><path
               id="path736"
               style="fill:#d91661;fill-opacity:1;fill-rule:nonzero;stroke:none"
               d="M 16300,10785.5 V 3484.18 h -388.4 v 7301.32 h 388.4" /></g><g
             transform="scale(1.84064)"
             id="g738"><path
               id="path740"
               style="fill:#da1662;fill-opacity:1;fill-rule:nonzero;stroke:none"
               d="M 16300,10534.5 V 3403.1 h -379.3 v 7131.4 h 379.3" /></g><g
             transform="scale(1.88347)"
             id="g742"><path
               id="path744"
               style="fill:#db1662;fill-opacity:1;fill-rule:nonzero;stroke:none"
               d="M 16300,10294.9 V 3325.72 h -370.6 v 6969.18 h 370.6" /></g><g
             transform="scale(1.92631)"
             id="g746"><path
               id="path748"
               style="fill:#dd1663;fill-opacity:1;fill-rule:nonzero;stroke:none"
               d="M 16300,10066 V 3251.77 h -362.5 V 10066 h 362.5" /></g><g
             transform="scale(1.96914)"
             id="g750"><path
               id="path752"
               style="fill:#de1663;fill-opacity:1;fill-rule:nonzero;stroke:none"
               d="m 16300,9847.03 v -6666 h -354.6 v 6666 h 354.6" /></g><g
             transform="scale(1.96914)"
             id="g754"><path
               id="path756"
               style="fill:#de1663;fill-opacity:1;fill-rule:nonzero;stroke:none"
               d="m 16300,3181.03 v 6666 h 463 v -6666 h -463" /></g></g></g><g
         transform="scale(1.99361)"
         id="g758"><path
           id="path760"
           style="fill:#040606;fill-opacity:1;fill-rule:nonzero;stroke:none"
           d="m 13539.3,9245.02 c -663.4,0 -1383.2,-187.85 -2056.4,-576.49 -794.1,-458.51 -1404.1,-1124.19 -1717.52,-1874.43 -309.44,-740.82 -291.53,-1475.02 50.46,-2067.36 341.96,-592.29 968.86,-974.91 1765.06,-1077.29 806.8,-103.88 1688,91.65 2482.1,550.21 794.2,458.46 1404.1,1124.14 1717.5,1874.39 309.4,740.71 291.5,1474.96 -50.4,2067.3 v 0 c -417.7,723.41 -1247.2,1103.67 -2190.8,1103.67 z M 12010.5,3421.48 c -153.5,0 -305.5,9.53 -455.2,28.74 -859.8,110.55 -1539.4,528.28 -1913.41,1176.1 -374.05,647.82 -396.02,1445.22 -61.8,2245.22 330.26,790.58 970.31,1490.51 1802.41,1970.95 1726.5,996.78 3754.8,727.22 4521.6,-600.72 v 0 c 374,-647.82 395.9,-1445.17 61.8,-2245.17 -330.3,-790.58 -970.4,-1490.56 -1802.5,-1970.94 -685.5,-395.77 -1435,-604.18 -2152.9,-604.18" /></g><g
         id="g762"><g
           clip-path="url(#clipPath768)"
           id="g764"><path
             id="path770"
             style="fill:#c8145c;fill-opacity:1;fill-rule:nonzero;stroke:none"
             d="m 11474.5,14295.7 1048.1,-704.1 -3353.94,-4993.4 v 5697.5 h 2305.84" /><path
             id="path772"
             style="fill:#c8145c;fill-opacity:1;fill-rule:nonzero;stroke:none"
             d="m 12522.6,13591.6 387.2,-260 -3741.14,-5569.8 v 836.4 l 3353.94,4993.4" /><path
             id="path774"
             style="fill:#c9145c;fill-opacity:1;fill-rule:nonzero;stroke:none"
             d="m 12909.8,13331.6 387.1,-260 -4128.24,-6146.2 v 836.4 l 3741.14,5569.8" /><path
             id="path776"
             style="fill:#ca145d;fill-opacity:1;fill-rule:nonzero;stroke:none"
             d="m 13296.9,13071.6 387.2,-260.1 L 9168.66,6089 v 836.4 l 4128.24,6146.2" /><path
             id="path778"
             style="fill:#cb145d;fill-opacity:1;fill-rule:nonzero;stroke:none"
             d="m 13684.1,12811.5 387.1,-260 L 9285.85,5427 9168.66,5505.7 V 6089 l 4515.44,6722.5" /><path
             id="path780"
             style="fill:#cc145e;fill-opacity:1;fill-rule:nonzero;stroke:none"
             d="m 14071.2,12551.5 387.2,-260 L 9673,5167 l -387.15,260 4785.35,7124.5" /><path
             id="path782"
             style="fill:#cd145e;fill-opacity:1;fill-rule:nonzero;stroke:none"
             d="m 14458.4,12291.5 387.1,-260.1 -4785.4,-7124.4 -387.1,260 4785.4,7124.5" /><path
             id="path784"
             style="fill:#ce155e;fill-opacity:1;fill-rule:nonzero;stroke:none"
             d="m 14845.5,12031.4 387.2,-260 -4785.4,-7124.5 -387.2,260.1 4785.4,7124.4" /><path
             id="path786"
             style="fill:#cf155f;fill-opacity:1;fill-rule:nonzero;stroke:none"
             d="m 15232.7,11771.4 387.1,-260.1 -4785.4,-7124.4 -387.1,260 4785.4,7124.5" /><path
             id="path788"
             style="fill:#d0155f;fill-opacity:1;fill-rule:nonzero;stroke:none"
             d="m 15619.8,11511.3 387.1,-260 -4785.3,-7124.5 -387.2,260.1 4785.4,7124.4" /><g
             transform="scale(1.00577)"
             id="g790"><path
               id="path792"
               style="fill:#d31560;fill-opacity:1;fill-rule:nonzero;stroke:none"
               d="m 15915,11186.7 385,-258.5 -4757.9,-7083.59 -384.9,258.5 4757.8,7083.59" /></g><g
             transform="scale(1.02952)"
             id="g794"><path
               id="path796"
               style="fill:#d41560;fill-opacity:1;fill-rule:nonzero;stroke:none"
               d="m 15924,10676.1 376,-252.6 -4648.1,-6920.12 -376.1,252.54 4648.2,6920.18" /></g><g
             transform="scale(1.05328)"
             id="g798"><path
               id="path800"
               style="fill:#d61560;fill-opacity:1;fill-rule:nonzero;stroke:none"
               d="m 15932.4,10188.4 367.6,-246.84 -4543.3,-6764.14 -367.6,246.94 4543.3,6764.04" /></g><g
             transform="scale(1.07702)"
             id="g802"><path
               id="path804"
               style="fill:#d71461;fill-opacity:1;fill-rule:nonzero;stroke:none"
               d="m 15940.6,9722.34 359.4,-241.4 -4443.1,-6614.99 -359.5,241.41 4443.2,6614.98" /></g><g
             transform="scale(1.10078)"
             id="g806"><path
               id="path808"
               style="fill:#d81561;fill-opacity:1;fill-rule:nonzero;stroke:none"
               d="m 15948.3,9276.34 351.7,-236.29 -4347.3,-6472.14 -351.6,236.19 4347.2,6472.24" /></g><g
             transform="scale(1.11479)"
             id="g810"><path
               id="path812"
               style="fill:#d91661;fill-opacity:1;fill-rule:nonzero;stroke:none"
               d="m 16095.2,8926.47 347.2,-233.23 -4171.2,-6210.07 h -390.5 l -78.2,52.47 4292.7,6390.83" /></g><g
             transform="scale(1.11479)"
             id="g814"><path
               id="path816"
               style="fill:#da1662;fill-opacity:1;fill-rule:nonzero;stroke:none"
               d="m 16442.4,8693.24 157,-105.49 V 8176.64 L 12775.2,2483.17 h -504 l 4171.2,6210.07" /></g><g
             transform="scale(1.11479)"
             id="g818"><path
               id="path820"
               style="fill:#db1662;fill-opacity:1;fill-rule:nonzero;stroke:none"
               d="M 16599.4,7426.36 13279.1,2483.17 h -503.9 l 3824.2,5693.47 v -750.28" /></g><g
             transform="scale(1.11479)"
             id="g822"><path
               id="path824"
               style="fill:#dd1663;fill-opacity:1;fill-rule:nonzero;stroke:none"
               d="M 16599.4,6675.99 13783.1,2483.17 h -504 l 3320.3,4943.19 v -750.37" /></g><g
             transform="scale(1.11479)"
             id="g826"><path
               id="path828"
               style="fill:#de1663;fill-opacity:1;fill-rule:nonzero;stroke:none"
               d="M 16599.4,5925.72 14287.1,2483.17 h -504 l 2816.3,4192.82 v -750.27" /></g><g
             transform="scale(1.11479)"
             id="g830"><path
               id="path832"
               style="fill:#de1663;fill-opacity:1;fill-rule:nonzero;stroke:none"
               d="m 14287.1,2483.17 2312.3,3442.55 V 2483.17 h -2312.3" /></g></g></g><g
         transform="scale(1.14899)"
         id="g834"><path
           id="path836"
           style="fill:#040606;fill-opacity:1;fill-rule:nonzero;stroke:none"
           d="M 8425.86,12045.5 C 8158.9,10812.8 8255.21,9299.87 8701.45,7830.33 9165.84,6300.82 9949.66,4970.96 10908.6,4085.75 c 934,-862.5 1918.1,-1194.88 2770.8,-935.6 h 0.1 C 15137,3592.27 15902,5666.43 15562,8219.71 12749.6,8422.94 10174.6,9806.32 8425.86,12045.5 Z M 13094.1,2715.42 c -789.9,0 -1628.3,381.55 -2422,1114.19 C 9668.37,4756.25 8850.09,6141.11 8368,7729.02 7859.74,9402.75 7790.56,11138.1 8178.17,12489.8 l 98.57,344 209.99,-289.7 C 10202.1,10178.1 12840.4,8725.37 15725,8558.36 l 141.5,-8.18 20.8,-140.3 c 412.7,-2791.66 -453.5,-5091.76 -2106.6,-5593.33 -222.9,-67.62 -452.7,-101.13 -686.6,-101.13" /></g><g
         transform="scale(1.60252)"
         id="g838"><path
           id="path840"
           style="fill:#f2587a;fill-opacity:1;fill-rule:nonzero;stroke:none"
           d="m 10515.7,15280.1 c -93.1,-224 -594.86,-228.5 -1120.59,-9.9 -525.8,218.6 -876.5,577.4 -783.4,801.4 93.17,224 594.82,228.4 1120.61,9.9 525.78,-218.6 876.48,-577.4 783.38,-801.4" /></g><g
         transform="scale(1.69964)"
         id="g842"><path
           id="path844"
           style="fill:#f2587a;fill-opacity:1;fill-rule:nonzero;stroke:none"
           d="m 16176.3,11544.9 c -123.7,-192.4 -590,-113 -1041.6,177.4 -451.6,290.3 -717.3,681.7 -593.6,874 123.7,192.4 590.1,113.1 1041.6,-177.3 451.5,-290.3 717.3,-681.7 593.6,-874.1" /></g><g
         transform="scale(1.42125)"
         id="g846"><path
           id="path848"
           style="fill:#7a2353;fill-opacity:1;fill-rule:nonzero;stroke:none"
           d="m 15970.8,14715.8 c 11.2,-209.9 -81.1,-379.6 -167,-507.8 l -17.6,14.1 c -112,197.9 -506.4,838.9 -1321.4,1169.3 -721.3,291.5 -1357.4,172.5 -1603.8,111.3 48.5,186.6 143.7,388.8 331.7,519.8 399.4,277.5 949.5,47.1 1468.6,-169.8 427.6,-178.9 1277.7,-534.6 1309.5,-1136.9" /></g><g
         transform="scale(1.43166)"
         id="g850"><path
           id="path852"
           style="fill:#040606;fill-opacity:1;fill-rule:nonzero;stroke:none"
           d="m 13396.2,15570.4 c 293.3,0 639.4,-46.8 1002.8,-193.7 671.7,-272.3 1073.6,-747.6 1284,-1074.6 42.1,87 72.9,188.1 66.9,301.1 v 0.1 c -28,532 -843.6,873.3 -1235.5,1037.3 -496.8,207.6 -1008.9,421.6 -1357.8,179.2 -97.1,-67.6 -174.1,-164.6 -229.9,-289.5 131.5,22.7 290.7,40.1 469.5,40.1 z m 2292.7,-1570.6 c -23.7,0 -46.9,8 -65.6,23 l -17.5,14 c -10.4,8.3 -19.2,18.6 -25.7,30.2 -165.7,292.9 -549.8,827.4 -1259.9,1115.2 -647,261.6 -1234.8,178.7 -1527.5,105.9 -36,-8.8 -73.9,1.7 -99.9,28.1 -26,26.3 -36.2,64.4 -26.9,100.1 67,257.3 191.8,451 370.9,575.7 443.2,308 1034.9,61 1556.8,-157.1 433.2,-181.3 1330.8,-556.9 1365.7,-1220.4 v 0 c 13,-241.8 -91.1,-430.6 -183.3,-568.3 -16.3,-24.3 -42.1,-40.7 -71.1,-45.2 -5.4,-0.8 -10.7,-1.2 -16,-1.2" /></g><g
         transform="scale(1.37798)"
         id="g854"><path
           id="path856"
           style="fill:#f25064;fill-opacity:1;fill-rule:nonzero;stroke:none"
           d="m 16300,14654.1 c -19.6,-28.4 -38.5,-55.2 -56,-80 -333.4,-469.3 -1082.4,-917.5 -1885.9,-658.8 -781,252 -1151.5,1022.9 -1145.7,1636.7 0.8,69 2.2,244.1 52.4,436.7 v 0.7 c 254.2,63.1 910.2,185.9 1654.1,-114.8 840.6,-340.7 1247.4,-1001.8 1363,-1206 l 18.1,-14.5" /></g><g
         transform="scale(1.38831)"
         id="g858"><path
           id="path860"
           style="fill:#040606;fill-opacity:1;fill-rule:nonzero;stroke:none"
           d="m 13256.2,15780.4 c -31.9,-151.6 -33.3,-283.5 -33.9,-343.8 -5.5,-584.8 357.6,-1294.5 1062.2,-1521.9 785,-252.4 1476.9,228.7 1750.6,613.8 3.5,4.8 6.8,9.6 10.3,14.5 -181.4,308.3 -574.6,828.2 -1278.1,1113.3 -622.9,251.9 -1192.6,194 -1511.1,124.1 z m 1464.3,-2150.5 c -165.1,0 -333.8,24.6 -502.4,78.9 -841.5,271.7 -1218.2,1086.5 -1212.1,1728.6 0.7,71 2.6,255.5 54.8,457.3 9.2,38.9 39.3,70.8 79.2,80.7 327.3,81.4 984.5,174.1 1708.6,-118.6 778.5,-315.6 1205.6,-895.6 1395.9,-1225.7 l 1.8,-1.6 c 44.4,-35.5 53.7,-99.3 21.4,-146 -18.9,-27.3 -37.3,-53.5 -54.3,-77.5 -304.7,-428.9 -872.8,-776.1 -1492.9,-776.1" /></g><g
         transform="scale(1.35772)"
         id="g862"><path
           id="path864"
           style="fill:#040606;fill-opacity:1;fill-rule:nonzero;stroke:none"
           d="m 13456.2,16150.2 -38.6,142.4 c 10.4,2.8 21.7,5.5 33,7.4 l 24.3,-145.5 c -6.4,-1.1 -12.8,-2.7 -18.7,-4.3" /></g><g
         transform="scale(1.80577)"
         id="g866"><path
           id="path868"
           style="fill:#ffffff;fill-opacity:1;fill-rule:nonzero;stroke:none"
           d="m 11677,15609.6 c -104.5,-272.9 -337.1,-437.5 -519.4,-367.7 -182.4,69.9 -245.5,347.7 -141,620.6 104.5,272.9 337.1,437.5 519.4,367.6 182.4,-69.8 245.5,-347.7 141,-620.5" /></g><g
         transform="scale(1.68702)"
         id="g870"><path
           id="path872"
           style="fill:#ffffff;fill-opacity:1;fill-rule:nonzero;stroke:none"
           d="m 15070.3,15561 c -111.8,-292 -360.8,-468.3 -556,-393.5 -195.2,74.8 -262.8,372.2 -150.8,664.2 111.8,292.1 360.7,468.3 556,393.6 195.2,-74.8 262.7,-372.2 150.8,-664.3" /></g><g
         transform="scale(1.6185)"
         id="g874"><path
           id="path876"
           style="fill:#040606;fill-opacity:1;fill-rule:nonzero;stroke:none"
           d="m 11281.2,16257.1 c -2.8,9.2 -4.5,16.6 -5.4,22.1 l 122,20.8 c 0.3,-1.9 1.1,-4.5 2,-7.6 l 2.5,-17.7 -62.8,-0.3 -58.3,-17.3" /></g><g
         transform="scale(1.53824)"
         id="g878"><path
           id="path880"
           style="fill:#040606;fill-opacity:1;fill-rule:nonzero;stroke:none"
           d="m 16270.7,15066.1 -47.3,121.1 24.1,9.4 52.5,-119.1 c -4.4,-2 -10.4,-4.3 -17.8,-7.1 l -11.5,-4.3" /></g><g
         transform="scale(1.48105)"
         id="g882"><path
           id="path884"
           style="fill:#040606;fill-opacity:1;fill-rule:nonzero;stroke:none"
           d="m 15463.3,16217.6 c -3.4,6.3 -6.2,12.2 -8.6,17.5 l 118.9,64.9 3.9,-8.4 c 1.3,-2.8 2.6,-5.8 4.4,-9 l -118.6,-65" /></g></g></g></svg>